<?xml version="1.0" encoding="utf-8"?>
<!-- Generator: Adobe Illustrator 19.2.0, SVG Export Plug-In . SVG Version: 6.00 Build 0)  -->
<svg version="1.1" id="Layer_1" xmlns="http://www.w3.org/2000/svg" xmlns:xlink="http://www.w3.org/1999/xlink" x="0px" y="0px"
	 viewBox="0 0 999 1001" style="enable-background:new 0 0 999 1001;" xml:space="preserve">
<style type="text/css">
	.st0{display:none;fill:#FFFDFC;}
	.st1{fill:#FFFFFF;}
</style>
<path class="st0" d="M0,0h999v476.7c-1.7-25.2-4.3-50.5-9.5-75.3c-6.5-32.2-16.2-63.8-28.9-94.1c-3.9-9-7.6-18.1-12.3-26.7
	c-6.9,5.6-12.9,12.2-19.6,18c-29.6,27.8-59.3,55.3-88.9,83.1c-4.4,3.9-8.6,7.8-12.6,12c3.1,17.9,4.5,36,5.1,54.2
	c-0.1,30.7-3.8,61.5-12,91.1c-14.9,54.8-44.4,105.5-84.5,145.8c-45.1,45.6-103.8,77.7-166.7,90.7c-12.6,2.7-25.3,4.6-38.2,5.8
	c-5,0.2-9.9,0.6-14.9,1.2c-0.2,11.3-0.1,22.5,0,33.8c12.1,0.1,24.2-1.3,36.3-2.4c37.2-3.8,73.8-12.1,109.2-23.7
	c0.1,11.7,0.2,23.5,0,35.2c-41.7,13.1-85,21.1-128.5,23.8c-5.7,0.2-11.3,0.5-16.9,1c-0.1,23.3-0.1,46.6,0,69.8
	c49.2-1.3,98.1-9.3,145.5-22.1c0.2,11.5,0.1,23.1,0,34.6c-47.5,12.8-96.5,19.4-145.5,21.3c-0.2,15.3-0.1,30.7-0.1,46
	c48.3-1.9,96.4-10.1,142.3-25.6c69.5-23.2,133.5-62,186.5-112.6c56.1-53.6,99.6-120.3,125.6-193.4c15.2-42.6,24.5-87.3,27.7-132.4
	c0.2-3.9,0.5-7.9,1-11.7V1001H0V516.3c0.5,4.6,0.8,9.2,0.9,13.8c4.6,81.8,29.9,162.3,73,232c39.2,63.8,93,118.6,156,159
	c52.9,34.1,112.4,58,174.3,69.9c25.8,5.1,52.1,7.8,78.3,8.9c0-15.3,0-30.5,0-45.8c-39.6-1.4-79.1-5.5-117.8-13.8
	c-8-1.8-16.2-3.2-24-5.8c-0.1-11.4-0.1-22.9,0-34.3c11.7,2.6,23.3,5.7,35,8c27.1,5.5,54.6,9.1,82.3,11c8.2,0.2,16.3,1.5,24.5,0.8
	c0-23.2,0-46.4,0-69.6c-6.1-0.8-12.3-1-18.5-1.2c-41.7-3-83.3-10.1-123.3-22.7c-0.1-11.5-0.1-23,0-34.5c5.8,0.8,11.2,3,16.8,4.5
	c36.6,10.5,74.4,17.1,112.5,19.3c4.2,0.5,8.4,0.6,12.5,0.3c0-11.3,0.1-22.5,0-33.8c-3.8-0.7-7.6-1-11.5-1.1
	c-39.5-3.5-78.3-14.2-114.1-31.4c-65.5-31.4-120.1-85.1-152.6-150.2c-30.2-59.8-41.2-128.8-31.8-195c0.1-2,0.7-4.3-0.2-6.2
	c-2.1-2.8-5-5-7.6-7.4C126.2,355.5,88,319.4,49.3,283.9C22.4,339.5,6.2,400.3,1.5,462c-0.8,7.6-0.6,15.2-1.5,22.8V0z"/>
<path class="st1" d="M291.2,46.2c3.2-1.3,6.2-3.4,9.7-3.4c26.1-0.8,52.7,2,77.4,10.9c17.7,6.4,34.5,16.9,45.8,32.2
	c8.5,11.5,13.8,25.4,15,39.6c-71.2,13.1-137.6,50.7-185.7,104.9c-18.7,20.8-34.5,44.1-47.6,68.9c-1.5-0.9-3-1.8-4.4-2.8
	c-37.2-27-74.5-53.8-111.6-80.8c0.5-1.1,0.9-2.2,1.5-3.3C141.9,140.8,211.5,82.7,291.2,46.2z"/>
<path class="st1" d="M623.4,52.4c24.9-8.2,51.4-10.8,77.5-9.2c29.6,12.5,57.6,28.7,84,47c47.6,33.2,89.5,74.6,123,122.1
	c-14.5,11.1-29.6,21.5-44.3,32.4c-19.1,13.8-38.2,27.8-57.3,41.6c-4.3,3-8.3,6.5-13,8.9c-17-31.4-38.7-60.2-64.7-84.7
	c-30.8-29.3-67.4-52.5-107.1-68c-20.2-8-41.3-13.6-62.6-17.7c1.7-18,10-35.3,22.8-48C593.4,65.4,608,57.5,623.4,52.4z"/>
<path class="st1" d="M383.3,177.4c73.1-31.6,158.9-32,232.3-1c0.2,70.6,0.1,141.2,0.1,211.7c-50.9,0.3-101.8,0-152.7,0.1
	c-26.6-0.1-53.2,0.1-79.8-0.1c-0.1-66.7,0-133.4,0-200.2C383.2,184.5,383.2,180.9,383.3,177.4z"/>
<path class="st1" d="M632.8,184.5c14.5,6.7,28.1,15.4,41.2,24.5c29.9,21.4,55.9,48.4,75.9,79.2c36.3,54.9,53.2,122.3,47.6,187.9
	c-5.3,67.8-35.2,133.2-82.5,181.9c-20.1,20.7-42.9,39-68.6,52.4c-14.3,7.6-29.3,13.8-44.5,19.1c14.6-7.2,28.9-15,42.1-24.6
	c27.1-19.3,50.2-44.1,67.8-72.3c23.5-37.6,36.9-81.4,38.8-125.6c-0.1-12.4,0.5-24.8-1-37.1c-2.7-28.1-9.9-55.9-21.8-81.6
	c-31.6-0.2-63.3,0.1-94.9-0.1C632.7,320.3,632.6,252.4,632.8,184.5z"/>
<path class="st1" d="M323.7,211.7c13.4-9.7,27.4-18.9,42.4-26c0.2,67.5,0.1,135,0,202.5c-30.9,0.2-61.8-0.1-92.7,0.2
	c-22.9,50.3-28.8,108-17.2,162c8.7,40.8,27.4,79.3,54.2,111.2c18.4,22.1,40.7,40.9,65.4,55.5c6.9,4.2,14.3,7.5,21.3,11.6
	c-19.7-6.7-38.7-15.6-56.5-26.3C274,660.5,225.6,590.9,209.4,514c-2.9-13.5-4.8-27.1-5.9-40.8c0-10.7-1.9-21.4-0.5-32.1
	c1.5-51.1,16.8-101.8,43.6-145.4C266.7,263.1,293,234.4,323.7,211.7z"/>
<path class="st1" d="M928.7,298.7c6.7-5.8,12.7-12.4,19.6-18c4.7,8.6,8.4,17.7,12.3,26.7c12.7,30.3,22.4,61.9,28.9,94.1
	c5.2,24.8,7.8,50,9.5,75.3v47.6c-0.5,3.9-0.8,7.8-1,11.7c-3.1,45.1-12.5,89.8-27.7,132.4c-26,73.1-69.5,139.8-125.6,193.4
	c-52.9,50.5-117,89.4-186.5,112.6c-45.9,15.5-94,23.7-142.3,25.6c0-15.3-0.1-30.7,0.1-46c49.1-1.9,98.1-8.5,145.5-21.3
	c0.1-11.5,0.1-23.1,0-34.6C614,911,565.1,919,516,920.3c-0.1-23.3-0.1-46.5,0-69.8c5.6-0.5,11.3-0.9,16.9-1
	c43.6-2.8,86.9-10.7,128.5-23.8c0.2-11.7,0.1-23.5,0-35.2c-35.5,11.6-72.1,19.9-109.2,23.7c-12.1,1.1-24.2,2.5-36.3,2.4
	c-0.1-11.3-0.2-22.6,0-33.8c4.9-0.6,9.9-1,14.9-1.2c12.8-1.2,25.6-3.1,38.2-5.8c62.9-13,121.5-45.1,166.7-90.7
	c40.1-40.3,69.6-91,84.5-145.8c8.2-29.6,11.9-60.4,12-91.1c-0.6-18.1-2-36.3-5.1-54.2c4-4.2,8.2-8.2,12.6-12
	C869.4,354,899.1,326.5,928.7,298.7z"/>
<path class="st1" d="M49.3,283.9c38.7,35.6,76.9,71.6,115.4,107.4c2.6,2.4,5.4,4.5,7.6,7.4c0.9,1.9,0.3,4.1,0.2,6.2
	c-9.4,66.2,1.6,135.3,31.8,195c32.4,65.1,87,118.7,152.6,150.2c35.8,17.2,74.6,27.8,114.1,31.4c3.9,0.1,7.7,0.4,11.5,1.1
	c0.1,11.3,0.1,22.5,0,33.8c-4.2,0.2-8.4,0.2-12.5-0.3c-38.1-2.2-75.9-8.8-112.5-19.3c-5.6-1.5-11-3.7-16.8-4.5c0,11.5-0.1,23,0,34.5
	c39.9,12.6,81.5,19.7,123.3,22.7c6.2,0.2,12.4,0.4,18.5,1.2c0,23.2,0,46.4,0,69.6c-8.2,0.7-16.3-0.6-24.5-0.8
	c-27.6-1.9-55.1-5.5-82.3-11c-11.8-2.2-23.4-5.3-35-8c-0.1,11.4-0.1,22.9,0,34.3c7.8,2.6,16,3.9,24,5.8
	c38.8,8.2,78.2,12.3,117.8,13.8c0.1,15.2,0,30.5,0,45.8c-26.3-1.1-52.5-3.8-78.3-8.9c-61.8-11.9-121.3-35.8-174.3-69.9
	c-63-40.5-116.8-95.2-156-159c-43.1-69.7-68.4-150.2-73-232c-0.1-4.6-0.4-9.2-0.9-13.8V485c0.9-7.6,0.7-15.2,1.5-22.8
	C6.2,400.3,22.4,339.5,49.3,283.9z"/>
<path class="st1" d="M291.5,455.1c8.2-0.1,16.5-0.1,24.8,0c-0.8,11.4,4,22.7,12.1,30.5c7,7,16.3,11.4,26,12.8
	c17.6,2.8,36.7-5.7,45.8-21.2c4.2-6.6,5.5-14.4,5.9-22.1c8-0.2,16.1-0.1,24.1,0c0.8,15.6-4.9,31.4-14.9,43.3
	c-0.9,1.1-1.7,2.3-2.5,3.4c3.7,6,7.9,11.7,11.4,17.8c-4.4,2.9-8.8,5.9-13.4,8.6c-4.1-5-7.1-10.7-10.9-15.9
	c-9.1,5.5-19.1,9.1-29.6,10.8c-0.1,7.8,0.1,15.5-0.1,23.3c-5.3,0.1-10.7,0.2-16,0c-0.1-7.7,0.2-15.4-0.2-23
	c-9.7-1.3-19.1-4-27.7-8.7c-1.9-1.5-3.5,0.7-4.8,1.8c-4.8,4.6-9.8,8.9-14.7,13.4c-3.9-3.7-7.7-7.6-11-11.9
	c4.8-5.1,10.3-9.4,15.3-14.2c-6.8-7.6-12.9-15.9-16.1-25.7C292.6,470.7,291.2,462.9,291.5,455.1z"/>
<path class="st1" d="M557.9,455.1c8.1-0.1,16.3-0.1,24.4,0c-0.2,10.1,3.1,20.2,9.8,27.8c10.5,12.5,28,18.4,43.9,15.1
	c15.4-2.7,29.2-13.9,34.2-28.7c1.6-4.6,1.6-9.5,2.3-14.2c8-0.2,16.1,0,24.1-0.1c0.9,17-6,33.9-17.5,46.3c3.1,6.5,8.2,11.8,11.2,18.3
	c-4.3,2.8-8.4,6.1-13,8.2l-0.7-0.2c-3.8-4.8-6.5-10.4-10.4-15.2c-4.9,2.3-9.6,5.1-14.7,6.8c-4.8,1.8-10,2.6-15,3.8
	c-0.1,7.7,0.1,15.5-0.1,23.2c-5.5,0.2-11,0.2-16.5,0c-0.2-7.7,0-15.4-0.1-23.1c-10.1-1.3-20-4.4-28.9-9.4c-6.1,5.2-12,10.8-18,16.2
	c-3.9-3.8-7.5-7.9-11-12c5-4.9,10.3-9.4,15.4-14.1c-2.5-3.5-5.6-6.5-8-10.1C561.6,482.5,557.1,468.8,557.9,455.1z"/>
<path class="st1" d="M387,609.2c5.7-5.8,11.4-11.5,17.1-17.1c7.9,7.1,15.9,14.2,25.1,19.7c17.8,11,38.1,17.9,58.9,19.9
	c6.6,0.2,13.3,1.4,19.9,0.4c33.7-1.3,66.6-16,90.3-39.9c6.1,5.5,11.7,11.5,17.5,17.2c-26.2,26.9-62.5,43.6-99.8,46.9
	C469,660.6,419.9,643.3,387,609.2z"/>
</svg>
